{"title":"Sing Street 2016 Movies BRRip XviD ESubs New Source +Sample ☻rDX","uid":15216275,"size":739809931,"categoryP":"video","categoryS":"movies","magnet":"?xt=urn:btih:d3cae106857ad261a1b27d90546562ae1b01d8a0&amp;dn=Sing+Street+2016+Movies+BRRip+XviD+ESubs+New+Source+%2BSample+%E2%98%BBrDX&amp;tr=udp%3A%2F%2Ftracker.leechers-paradise.org%3A6969&amp;tr=udp%3A%2F%2Fzer0day.ch%3A1337&amp;tr=udp%3A%2F%2Fopen.demonii.com%3A1337&amp;tr=udp%3A%2F%2Ftracker.coppersurfer.tk%3A6969&amp;tr=udp%3A%2F%2Fexodus.desync.com%3A6969","seeders":1,"leechers":0,"uploader":"basicssom","files":3,"time":1467695497,"description":"----------------------------------------------------------------\r\nSing Street 2016 English Movies BRRip XviD ESubs AAC New Source with Sample ☻rDX☻\r\n\r\nSCREEN SHOTS &amp; POSTER:\r\n  \nhttp://mobileshosting.com/2016/7/wallet/index.htm  \nhttp://mobileshosting.com/2016/7/wallet/1.html  \nhttp://mobileshosting.com/2016/7/wallet/2.html  \nhttp://mobileshosting.com/2016/7/wallet/3.html  \nhttp://mobileshosting.com/2016/7/wallet/4.html  \nhttp://mobileshosting.com/2016/7/wallet/5.html  \nhttp://mobileshosting.com/2016/7/wallet/6.html  \nhttp://mobileshosting.com/2016/7/wallet/7.html  \nhttp://mobileshosting.com/2016/7/wallet/8.html  \nhttp://mobileshosting.com/2016/7/wallet/9.html  \nhttp://mobileshosting.com/2016/7/wallet/10.html\r\n\r\nFormat                                   : Matroska\r\nFormat version                           : Version 4 / Version 2\r\nFile size                                : 693 MiB\r\nDuration                                 : 1h 45mn\r\nOverall bit rate                         : 920 Kbps\r\nMovie name                               : Sing Street 2016 English Movies BRRip XviD AAC ESubs New Source ☻rDX☻\r\n\r\nVideo\r\nID                                       : 1\r\nFormat                                   : MPEG-4 Visual\r\nFormat profile                           : Advanced   \r\nFormat settings, BVOP                    : Yes\r\nFormat settings, QPel                    : No\r\nFormat settings, GMC                     : No warppoints\r\nFormat settings, Matrix                  : Default (H.263)\r\nCodec ID                                 : V_MS/VFW/FOURCC / XVID\r\nCodec ID/Hint                            : XviD\r\nDuration                                 : 1h 45mn\r\nBit rate                                 : 789 Kbps\r\nWidth                                    : 640 pixels\r\nHeight                                   : 272 pixels\r\nDisplay aspect ratio                     : 2.35:1\r\nFrame rate mode                          : Constant\r\nFrame rate                               : 23.976 fps\r\nColor space                              : YUV\r\nChroma subsampling                       : 4:2:0\r\nBit depth                                : 8 bits\r\nScan type                                : Progressive\r\nCompression mode                         : Lossy\r\nBits/(Pixel*Frame)                       : 0.189\r\nStream size                              : 595 MiB (86%)\r\nTitle                                    : ☻rDX☻\r\nWriting library                          : XviD 65\r\nDefault                                  : Yes\r\nForced                                   : No\r\n\r\nAudio\r\nID                                       : 2\r\nFormat                                   : MPEG Audio\r\nFormat version                           : Version 1\r\nFormat profile                           : Layer 3\r\nMode                                     : Joint stereo\r\nMode extension                           : MS Stereo\r\nCodec ID                                 : A_MPEG/L3\r\nCodec ID/Hint                            : MP3\r\nDuration                                 : 1h 45mn\r\nBit rate mode                            : Constant\r\nBit rate                                 : 112 Kbps\r\nChannel(s)                               : 2 channels\r\nSampling rate                            : 48.0 KHz\r\nCompression mode                         : Lossy\r\nStream size                              : 84.4 MiB (12%)\r\nTitle                                    : ☻rDX☻\r\nWriting library                          : LAME3.99r\r\nEncoding settings                        : -m j -V 4 -q 3 -lowpass 15.6 -b 112\r\nDefault                                  : Yes\r\nForced                                   : No\r\n\r\nIMDB \nhttp://www.imdb.com/title/tt3544112/","torrent":{"xt":"urn:btih:d3cae106857ad261a1b27d90546562ae1b01d8a0","amp;dn":"Sing+Street+2016+Movies+BRRip+XviD+ESubs+New+Source+%2BSample+%E2%98%BBrDX","amp;tr":["udp%3A%2F%2Ftracker.leechers-paradise.org%3A6969","udp%3A%2F%2Fzer0day.ch%3A1337","udp%3A%2F%2Fopen.demonii.com%3A1337","udp%3A%2F%2Ftracker.coppersurfer.tk%3A6969","udp%3A%2F%2Fexodus.desync.com%3A6969"],"infoHash":"d3cae106857ad261a1b27d90546562ae1b01d8a0","infoHashBuffer":{"type":"Buffer","data":[211,202,225,6,133,122,210,97,161,178,125,144,84,101,98,174,27,1,216,160]},"announce":[],"urlList":[]}}